<svg xmlns="http://www.w3.org/2000/svg" viewBox="0 0 640 400" role="img" aria-hidden="true">
  <rect width="640" height="400" fill="#1F150C"/>
  <rect x="0" y="0" width="640" height="400" fill="#412D15" opacity="0.35"/>
  <rect x="72" y="68" width="300" height="264" rx="8" fill="#E1DCC9"/>
  <rect x="96" y="108" width="200" height="10" fill="#412D15" opacity="0.55"/>
  <rect x="96" y="140" width="252" height="8" fill="#412D15" opacity="0.35"/>
  <rect x="96" y="168" width="220" height="8" fill="#412D15" opacity="0.35"/>
  <rect x="96" y="196" width="240" height="8" fill="#412D15" opacity="0.35"/>
  <rect x="96" y="224" width="180" height="8" fill="#412D15" opacity="0.35"/>
  <rect x="96" y="268" width="120" height="28" rx="4" fill="#1F150C"/>
  <text x="116" y="287" fill="#E1DCC9" font-family="Georgia, serif" font-size="14" font-weight="700">BAKI</text>
  <circle cx="470" cy="150" r="78" fill="#E1DCC9" opacity="0.12"/>
  <rect x="400" y="120" width="160" height="200" rx="10" fill="#000000" opacity="0.45"/>
  <rect x="420" y="148" width="120" height="10" fill="#E1DCC9" opacity="0.55"/>
  <rect x="420" y="176" width="96" height="8" fill="#E1DCC9" opacity="0.35"/>
  <rect x="420" y="200" width="108" height="8" fill="#E1DCC9" opacity="0.35"/>
  <rect x="420" y="248" width="72" height="24" rx="4" fill="#E1DCC9"/>
</svg>
