<svg xmlns="http://www.w3.org/2000/svg" viewBox="0 0 64 64">
  <rect width="64" height="64" fill="#1F150C"/>
  <rect x="8" y="8" width="48" height="48" fill="none" stroke="#412D15" stroke-width="2"/>
  <path d="M42 20c-2.8-2.2-6.1-3.3-9.7-3.3-6.4 0-10.8 3.2-10.8 8 0 4.2 2.8 6.4 9.5 8.1 5.1 1.3 6.8 2.5 6.8 4.8 0 2.8-2.5 4.6-6.4 4.6-4.1 0-7.9-1.5-10.8-4.3v6c3 2.1 6.7 3.2 10.9 3.2 7.6 0 12.4-3.8 12.4-9.8 0-4.8-2.8-7.2-9.8-9-4.8-1.2-6.5-2.2-6.5-4.1 0-1.8 1.8-3 4.7-3 3.6 0 7.2 1.3 10.7 4V20z" fill="#E1DCC9"/>
</svg>
